<svg xmlns="http://www.w3.org/2000/svg" width="15.475" height="15.028" viewBox="0 0 15.475 15.028">
  <g id="Path_534" data-name="Path 534" transform="translate(-1.598 -1.863)" fill="#f7ba25">
    <path d="M 13.18535709381104 16.04126167297363 C 13.10221672058105 16.0412712097168 13.01870727539062 16.0239315032959 12.93713760375977 15.98974227905273 L 10.23945713043213 14.8588924407959 C 9.951746940612793 14.73828220367432 9.647677421569824 14.67713165283203 9.335697174072266 14.67713165283203 C 9.023716926574707 14.67713165283203 8.719647407531738 14.73828220367432 8.431937217712402 14.8588924407959 L 5.734257221221924 15.98974227905273 C 5.652707099914551 16.0239315032959 5.569167137145996 16.04126167297363 5.485977172851562 16.04126167297363 C 5.31076717376709 16.04126167297363 5.139616966247559 15.96498203277588 5.016386985778809 15.83198165893555 C 4.931617259979248 15.74048233032227 4.834257125854492 15.58311176300049 4.851847171783447 15.35300254821777 L 5.081887245178223 12.34295177459717 C 5.128736972808838 11.72985172271729 4.936827182769775 11.13282203674316 4.541507244110107 10.66185188293457 L 2.598497152328491 8.347091674804688 C 2.392847061157227 8.102102279663086 2.447697162628174 7.840092182159424 2.48082709312439 7.738821983337402 C 2.513957262039185 7.637542247772217 2.624557256698608 7.393762111663818 2.935247182846069 7.317672252655029 L 5.814267158508301 6.612542152404785 C 6.421657085418701 6.46378231048584 6.934457302093506 6.087212085723877 7.25819730758667 5.552212238311768 L 8.79008674621582 3.020682096481323 C 8.958066940307617 2.743082046508789 9.227606773376465 2.713112115859985 9.335697174072266 2.713112115859985 C 9.443787574768066 2.713112115859985 9.713327407836914 2.743082046508789 9.881307601928711 3.020682096481323 L 11.41319751739502 5.552212238311768 C 11.73694705963135 6.087212085723877 12.24974727630615 6.46378231048584 12.85711669921875 6.612542152404785 L 15.73614692687988 7.317672252655029 C 16.04683685302734 7.393762111663818 16.15743637084961 7.637542247772217 16.19056701660156 7.73881196975708 C 16.22369766235352 7.840092182159424 16.2785472869873 8.102102279663086 16.07289695739746 8.347102165222168 L 14.12989711761475 10.66183185577393 C 13.73456764221191 11.13282203674316 13.54265689849854 11.72985172271729 13.58950710296631 12.34295177459717 L 13.81954669952393 15.35300254821777 C 13.83712673187256 15.58304214477539 13.73977756500244 15.74040222167969 13.65500736236572 15.8318920135498 C 13.53175735473633 15.96494197845459 13.36057758331299 16.04125213623047 13.18535709381104 16.04126167297363 Z" stroke="none"/>
    <path d="M 9.335697174072266 3.760846138000488 L 7.985406875610352 5.992292404174805 C 7.543936729431152 6.72181224822998 6.844687461853027 7.235292434692383 6.016467094421387 7.438141822814941 L 3.469002723693848 8.062067985534668 L 5.192526817321777 10.11535167694092 C 5.731607437133789 10.75757217407227 5.993307113647461 11.57168197631836 5.929417610168457 12.40772247314453 L 5.725832939147949 15.07161331176758 L 8.103286743164062 14.07500267028809 C 8.495616912841797 13.9105224609375 8.910257339477539 13.82713222503662 9.335697174072266 13.82713222503662 C 9.761137008666992 13.82713222503662 10.17577743530273 13.9105224609375 10.56806755065918 14.07498168945312 L 12.9455623626709 15.07161331176758 L 12.74197769165039 12.40771198272705 C 12.67809677124023 11.57169151306152 12.93977737426758 10.75759220123291 13.47885704040527 10.11535167694092 L 15.20239067077637 8.062067985534668 L 12.6549072265625 7.438141822814941 C 11.82669734954834 7.235281944274902 11.1274471282959 6.72181224822998 10.6859769821167 5.99226188659668 L 9.335697174072266 3.760846138000488 M 9.335697174072266 1.863109588623047 C 9.827384948730469 1.863109588623047 10.31907176971436 2.102277755737305 10.60852718353271 2.580612182617188 L 12.14041709899902 5.112152099609375 C 12.34496688842773 5.450172424316406 12.67557716369629 5.692952156066895 13.05932712554932 5.786942481994629 L 15.93835735321045 6.492072105407715 C 17.00906753540039 6.754312515258789 17.43266677856445 8.049252510070801 16.72393798828125 8.893582344055176 L 14.78093719482422 11.20832252502441 C 14.53084754943848 11.506272315979 14.40739727020264 11.89031219482422 14.43703651428223 12.27818202972412 L 14.66707706451416 15.28823184967041 C 14.75182723999023 16.39717102050781 13.63422679901123 17.20362281799316 12.60852718353271 16.77365112304688 L 9.910846710205078 15.64280223846436 C 9.542926788330078 15.4885721206665 9.128467559814453 15.4885721206665 8.760547637939453 15.64280223846436 L 6.062867164611816 16.77365112304688 C 5.037173271179199 17.20360946655273 3.919568061828613 16.39717292785645 4.004317283630371 15.28823184967041 L 4.234356880187988 12.27818202972412 C 4.263997077941895 11.89032173156738 4.140546798706055 11.506272315979 3.890447616577148 11.20832252502441 L 1.947456359863281 8.893582344055176 C 1.238727569580078 8.049262046813965 1.662326812744141 6.754312515258789 2.733036994934082 6.492072105407715 L 5.612056732177734 5.786942481994629 C 5.995817184448242 5.692952156066895 6.326427459716797 5.450172424316406 6.530977249145508 5.112152099609375 L 8.062867164611816 2.580612182617188 C 8.352322578430176 2.102277755737305 8.844009399414062 1.863109588623047 9.335697174072266 1.863109588623047 Z" stroke="none" fill="#f7ba25"/>
  </g>
</svg>
